<?xml version="1.0" encoding="UTF-8" standalone="no"?>
<svg
   xmlns:dc="http://purl.org/dc/elements/1.1/"
   xmlns:cc="http://creativecommons.org/ns#"
   xmlns:rdf="http://www.w3.org/1999/02/22-rdf-syntax-ns#"
   xmlns:svg="http://www.w3.org/2000/svg"
   xmlns="http://www.w3.org/2000/svg"
   version="1.1"
   id="svg8123"
   viewBox="0 0 189.70673 24.12375"
   height="24.123751"
   width="189.70673">
  <defs
     id="defs8125" />
  <metadata
     id="metadata8128">
    <rdf:RDF>
      <cc:Work
         rdf:about="">
        <dc:format>image/svg+xml</dc:format>
        <dc:type
           rdf:resource="http://purl.org/dc/dcmitype/StillImage" />
        <dc:title></dc:title>
      </cc:Work>
    </rdf:RDF>
  </metadata>
  <g
     transform="translate(-484.66504,-154.08604)"
     id="layer1">
    <g
       transform="translate(0.50000239,-0.49999994)"
       id="g10961">
      <path
         d="m 503.86383,175.98729 c -0.33501,0.19 -2.73125,2.22125 -7.5,2.22125 -4.01751,0.002 -8.3075,-2.05625 -9.65501,-2.01625 -0.47375,-0.02 -0.85375,0.0762 -1.1525,0.2075 -0.5625,0.23625 -1.10875,-0.10875 -0.80375,-0.68625 1.0575,-1.99875 2.85,-3.22875 4.54875,-3.74125 1.23875,-0.37375 2.37,-0.5 2.9575,0.1525 1.29,1.4325 3.6225,3.20125 5.89,3.43375 0.1825,0.0188 1.00625,0.0875 1.015,-0.145 0.009,-0.1425 -0.27125,-0.235 -0.555,-0.25625 -2.31625,-0.1675 -6.49,-2.64625 -8.78375,-7.44625 -0.86125,-1.80125 -1.545,-3.5475 -3.04375,-4.3075 -0.3325,-0.16 -0.3425,-0.77375 0.355,-0.94 0.48875,-0.11625 3.57,-0.4125 7.09375,1.4425 1.6175,0.85125 1.84375,1.615 1.84875,2.28125 -0.0138,5.03 2.53125,7.02625 3.515,7.61625 0.5475,0.3275 1.06,0.4675 1.115,0.29625 0.0437,-0.14375 -0.1,-0.24125 -0.22625,-0.3175 -3.05125,-1.8525 -3.8575,-4.7025 -3.88125,-7.60375 -0.0225,-2.87 1.04,-5.35375 1.79375,-7.38875 0.11125,-0.2875 0.46875,-1.5 0.165,-2.6225 -0.2275,-0.8375 -0.0425,-1.08125 0.3975,-1.08125 0.48375,0 1.1275,0.7825 1.34375,1.05125 0.17375,0.20125 0.735,0.88625 1.585,2.565 1.68125,3.32375 1.6925,6.79625 1.6925,7.22125 0,2.38625 -0.615,2.6625 -1.6175,3.1575 -1.00125,0.495 -1.4775,1.1325 -1.47875,1.8725 -0.002,0.76 0.5275,1.55125 1.47875,1.83 0.73626,0.215 1.20375,0.13375 1.165,-0.0575 -0.03,-0.15125 -0.35624,-0.18875 -0.45125,-0.215 -1.00375,-0.2725 -1.66875,-0.78625 -1.66875,-1.5575 0,-0.9625 1.18625,-1.66875 2.855,-1.66875 1.67,0 2.85625,0.70625 2.85625,1.66875 0,0.77125 -0.66375,1.28625 -1.6675,1.5575 -0.095,0.0263 -0.42125,0.0637 -0.45125,0.215 -0.0387,0.1925 0.42875,0.27375 1.16625,0.0575 0.95,-0.2775 1.47875,-1.06875 1.4775,-1.83 -10e-4,-0.73875 -0.47749,-1.3775 -1.4775,-1.8725 -1.0025,-0.495 -1.61875,-0.77125 -1.61875,-3.15625 0,-0.425 0.0125,-3.89875 1.69251,-7.2225 0.84999,-1.6775 1.41125,-2.36375 1.585,-2.565 0.21625,-0.26875 0.86,-1.05125 1.34375,-1.05125 0.44,0 0.625,0.24375 0.3975,1.08125 -0.30125,1.1225 0.0538,2.335 0.16375,2.6225 0.755,2.0375 1.81875,4.51875 1.79625,7.38875 -0.025,2.9025 -0.83,5.7525 -3.88125,7.605 -0.125,0.075 -0.2725,0.1725 -0.22625,0.31625 0.0537,0.1725 0.56624,0.0337 1.11374,-0.295 0.985,-0.59 3.52875,-2.5875 3.51625,-7.6175 0.004,-0.66625 0.23,-1.43 1.84876,-2.28125 3.52374,-1.855 6.60499,-1.5575 7.0925,-1.4425 0.6975,0.16625 0.68875,0.78125 0.35624,0.94 -1.5,0.76 -2.18375,2.5075 -3.04374,4.3075 -2.29376,4.8 -6.46875,7.28 -8.78501,7.4475 -0.28374,0.02 -0.56499,0.11375 -0.555,0.25625 0.009,0.23125 0.83251,0.1625 1.01501,0.14375 2.2675,-0.23125 4.6,-2 5.89,-3.43375 0.58874,-0.65125 1.71875,-0.52625 2.95874,-0.15125 1.6975,0.51125 3.49,1.74125 4.5475,3.74125 0.30626,0.5775 -0.24,0.92125 -0.80375,0.68625 -0.29875,-0.13125 -0.67875,-0.2275 -1.1525,-0.20875 -1.34625,-0.0388 -5.63625,2.01875 -9.65625,2.0175 -4.7675,0 -7.1625,-2.0325 -7.49624,-2.2225"
         style="fill:#d99e09;fill-opacity:1;fill-rule:nonzero;stroke:none"
         id="path8401" />
      <path
         d="m 625.9097,168.58729 c 0,-0.82125 0.88125,-1.2575 1.84875,-1.2575 1.64875,0 1.46375,1.31375 2.64125,1.31375 0.535,0 0.86125,-0.305 0.86125,-0.83 0,-0.9075 -1.20625,-1.51 -3.08125,-1.57125 -1.795,-0.0575 -2.7275,0.25875 -3.37,0.51 -0.72125,0.2825 -1.04,0.6925 -1.04,1.335 l 0,8.90875 c 0,0.47 0.2275,0.47 1.07125,0.47 0.83875,0 1.06875,0 1.06875,-0.47 l 0,-8.40875 z m -54.1475,1.58375 c 0.005,-3.3825 -2.94375,-3.9175 -5.08125,-3.9175 -1.725,0 -3.27375,0.43625 -4.00125,0.7575 -0.71875,0.31875 -0.78,0.71625 -0.78,1.3725 l 0.005,8.6225 c 0,0.46875 0.23,0.46875 1.07,0.46875 0.8425,0 1.07125,0 1.07125,-0.46875 l -0.005,-7.96 c 0,-0.70375 0.25,-1.67375 2.69125,-1.67375 2.30875,0 2.88625,1.365 2.88625,2.79875 l 0.004,6.835 c 0,0.46875 0.23125,0.46875 1.0675,0.46875 0.84375,0 1.0725,0 1.0725,-0.46875 l 0,-6.835 z m 47.81375,6.82 c 0,0.46875 0.23125,0.46875 1.06625,0.46875 0.84125,0 1.07125,0 1.07125,-0.46875 l 0.009,-10.1525 c 0.009,-0.74625 -1.01875,-0.55875 -1.5425,-0.21625 -0.5875,0.38125 -0.60625,0.57375 -0.60625,1.31375 l 0.003,9.055 z m -11.32875,-5.99125 c 0.31625,-0.8075 2.34875,-6.1225 2.45625,-6.4225 0.0312,-0.085 0.11875,-0.085 0.1525,0.002 0.145,0.3725 2.1975,5.595 2.50125,6.40375 0.0675,0.17625 0.0912,0.32125 -0.1425,0.32125 l -4.795,0 c -0.295,0 -0.22375,-0.1775 -0.1725,-0.305 m 5.9125,1.96125 c 0.72875,1.73 1.7325,4.14125 1.7325,4.14125 0.12625,0.30625 0.0125,0.38125 1.2775,0.38125 1.34,0 1.42125,-0.0425 1.1575,-0.63875 -0.0712,-0.16125 -5.39375,-12.945 -5.68875,-13.6425 -0.29625,-0.69875 -0.42375,-0.75 -1.53125,-0.75 -1.09625,0 -1.23875,0.0288 -1.5425,0.75 -0.30875,0.73375 -5.65125,13.57375 -5.7175,13.735 -0.225,0.54625 -0.0238,0.54625 0.88375,0.54625 0.85,0 0.94875,-0.0263 1.11,-0.38875 l 1.6475,-4.1225 c 0.0988,-0.25 0.13125,-0.35 0.42375,-0.35 1.1275,0 4.34,0 5.8225,-0.005 0.28375,-0.001 0.31375,0.08 0.425,0.34375 m 7.7275,-9.745 c -0.11875,-0.55875 -0.74125,-0.89875 -1.45625,-0.7475 -0.71625,0.15 -1.14375,0.71125 -1.025,1.26875 0.12,0.5575 0.74125,0.8975 1.4575,0.74625 0.71625,-0.15 1.14375,-0.71125 1.02375,-1.2675 m 10.07,13.78625 c 0,0.47 0.23,0.47 1.06625,0.47 0.84,0 1.07125,0 1.07125,-0.47 l 0.009,-14.55375 c 0.009,-0.745 -1.01875,-0.5575 -1.54375,-0.215 -0.585,0.3825 -0.605,0.5725 -0.605,1.3125 l 0.002,13.45625 z m 6.83875,-13.7825 c -0.12,-0.5575 -0.74,-0.8975 -1.45625,-0.74625 -0.71625,0.15 -1.145,0.71125 -1.025,1.26875 0.11875,0.5575 0.74125,0.8975 1.45625,0.7475 0.71625,-0.15125 1.145,-0.7125 1.025,-1.27 m -2.31125,13.77625 c 0,0.46875 0.23125,0.46875 1.06625,0.46875 0.84,0 1.07125,0 1.07125,-0.46875 l 0.009,-10.1525 c 0.009,-0.74625 -1.01875,-0.55875 -1.545,-0.21625 -0.585,0.38125 -0.60375,0.5725 -0.60375,1.31375 l 0.002,9.055 z m 14.33,-6.815 c 0.006,-3.3825 -2.9425,-3.9175 -5.08,-3.9175 -1.72625,0 -3.275,0.43625 -4.0025,0.7575 -0.71875,0.3175 -0.78,0.71625 -0.78,1.3725 l 0.006,8.6225 c 0,0.4675 0.23125,0.4675 1.06875,0.4675 0.8425,0 1.07125,0 1.07125,-0.4675 l -0.002,-7.96 c 0,-0.7025 0.24875,-1.67375 2.68875,-1.67375 2.3075,0 2.88625,1.365 2.88625,2.79875 l 0.005,6.835 c 0,0.4675 0.22875,0.4675 1.06625,0.4675 0.845,0 1.0725,0 1.0725,-0.4675 l 0,-6.835 z m 22.55625,4.2975 c -0.0838,-3.7475 -7.08,-3.06 -7.0825,-5.6725 -10e-4,-1.02125 1.05,-1.4925 2.1875,-1.4925 1.63875,0 2.18125,0.5475 2.52375,1.345 0.16,0.3725 0.48375,0.71375 1.10875,0.71375 0.47125,0 0.86875,-0.3 0.86875,-0.85125 0,-0.82875 -1.1525,-2.28875 -4.3,-2.31 -2.60625,-0.0175 -4.37125,0.97625 -4.37375,3.035 -0.003,3.85625 7.00125,3.03375 6.99,5.70875 -0.005,1.105 -1.035,1.61625 -2.53,1.63125 -1.49125,0.0163 -2.28875,-0.58875 -2.72,-1.635 -0.21,-0.425 -0.4875,-0.8075 -1.13625,-0.79625 -0.58625,0.01 -0.93375,0.38625 -0.93375,0.95875 0,0.78625 1.3675,2.6125 4.69125,2.6125 2.7225,0 4.75375,-1.0975 4.70625,-3.2475 m -134.6475,2.5175 c 0,0.46875 0.23125,0.46875 1.06625,0.46875 0.84125,0 1.0725,0 1.0725,-0.46875 l 0.007,-10.1525 c 0.01,-0.74625 -1.01875,-0.55875 -1.5425,-0.21625 -0.5875,0.38125 -0.605,0.5725 -0.605,1.31375 l 10e-4,9.055 z m 39.61625,0.73 c 1.78375,0.0125 2.68875,-0.30625 3.76,-0.79625 0.8025,-0.38 0.8025,-0.805 0.8025,-1.2975 l 0,-6.11875 c 0,-2.33125 -1.9375,-3.3 -4.15875,-3.29625 -3.625,0.009 -5.0675,1.56375 -5.125,2.57125 -0.03,0.53625 0.28875,0.92875 0.91375,0.9425 0.60875,0.0137 0.9725,-0.38625 1.115,-0.71875 0.445,-1.0425 1.2125,-1.6875 2.795,-1.6875 1.24,0 2.34875,0.56875 2.34375,2.0425 l 0,0.65 c 0,0.19875 0,0.24 -0.17375,0.26125 -3.26375,0.5225 -7.50375,1.54875 -7.50375,4.5475 0,1.865 2.23625,2.8975 5.23125,2.9 m 2.44875,-2.5975 c 0,1.13125 -1.4725,1.43 -2.56125,1.43 -1.9225,0 -2.8775,-0.82125 -2.8775,-1.905 0,-1.975 2.55,-2.6875 5.20875,-3.24625 0.14125,-0.03 0.2275,-0.045 0.2275,0.15625 l 0.003,3.565 z m -39.7525,-11.90875 c -0.12,-0.5575 -0.74125,-0.8975 -1.4575,-0.74625 -0.715,0.15 -1.14375,0.71125 -1.025,1.26875 0.12,0.5575 0.7425,0.8975 1.45875,0.7475 0.715,-0.15125 1.14375,-0.7125 1.02375,-1.27 m 57.75125,13.795 c 0,0.46875 0.22875,0.465 1.07,0.4675 0.8375,0.001 1.06875,0.001 1.06875,-0.4675 l 0,-7.2575 c 0,-2.88625 -2.70875,-3.48375 -4.3125,-3.48375 -1.87375,0 -2.94,0.53625 -3.66875,1.3425 -0.77875,-0.8475 -1.81875,-1.3425 -3.64125,-1.3425 -1.25625,0 -2.48125,0.30125 -3.5775,0.7875 -0.7925,0.35125 -0.7925,0.8175 -0.7925,1.27 l 0,8.68375 c 0,0.46875 0.23375,0.46875 1.07,0.46875 0.8375,0 1.06875,0 1.06875,-0.46875 l 0.003,-8.08875 c 0,-1.20625 0.9675,-1.5375 2.23625,-1.5375 1.58,0 2.5475,0.7425 2.5475,2.60625 l 0,7.02 c 0,0.46875 0.23125,0.46875 1.07125,0.46875 0.83875,0 1.06625,0 1.06625,-0.46875 l 0,-7.15875 c 0,-1.41875 0.7425,-2.475 2.445,-2.475 1.6525,0 2.3575,1.07875 2.3575,2.5075 l -0.0113,7.12625 z m -53.81375,-6.85875 c 0.19,-1.335 1.20875,-2.81375 3.2225,-2.83 1.68625,-0.0138 3.16625,1.01125 3.24375,2.51875 0.0213,0.43375 -0.0925,0.4875 -0.60875,0.4875 l -5.69375,0 c -0.15875,0 -0.17875,-0.0712 -0.16375,-0.17625 m 8.595,4.0225 c 0,-0.1925 -0.1475,-0.38625 -0.41875,-0.38625 -0.24625,0 -0.37,0.0875 -0.5175,0.34375 -0.5675,0.96125 -1.9575,2.0875 -3.8075,2.10625 -2.49875,0.0238 -3.94125,-1.7725 -3.87875,-4.5475 0,-0.095 0.04,-0.17625 0.18375,-0.18 0.14375,-0.004 3.91125,-0.006 7.71,0.001 0.7275,0.001 0.74,-0.4825 0.74,-0.88 0,-2.29875 -2.14125,-4.42125 -5.21125,-4.42125 -3.1875,0 -5.635,1.73875 -5.635,5.7375 0,4.255 3.18,5.765 5.89125,5.765 3.27625,0 4.94375,-2.53375 4.94375,-3.53875 m 100.88625,-4.0225 c 0.19,-1.335 1.21,-2.81375 3.2225,-2.83 1.68625,-0.0138 3.16625,1.01125 3.24375,2.51875 0.0225,0.43375 -0.0912,0.4875 -0.60875,0.4875 l -5.6925,0 c -0.15875,0 -0.18,-0.0712 -0.165,-0.17625 m 8.595,4.0225 c 0,-0.1925 -0.1475,-0.38625 -0.41875,-0.38625 -0.24625,0 -0.36875,0.0875 -0.5175,0.34375 -0.56625,0.96125 -1.95875,2.0875 -3.8075,2.10625 -2.49875,0.0238 -3.94125,-1.7725 -3.87875,-4.5475 0,-0.095 0.0412,-0.17625 0.18375,-0.18 0.145,-0.004 3.91125,-0.006 7.71,0.001 0.72875,0.001 0.74,-0.4825 0.74,-0.88 0,-2.29875 -2.14125,-4.42125 -5.21125,-4.42125 -3.18625,0 -5.635,1.73875 -5.635,5.7375 0,4.255 3.18125,5.765 5.89,5.765 3.2775,0 4.945,-2.53375 4.945,-3.53875 m -133.54875,2.5525 c 0.2925,0.69875 0.36,0.7525 1.475,0.7525 1.07375,0 1.0975,-0.0425 1.41,-0.76 0.3125,-0.71625 4.385,-10.95875 5.4675,-13.63875 0.24,-0.595 0.13625,-0.645 -0.82375,-0.645 -0.84125,0 -0.91875,0.0488 -1.07875,0.41125 0,0 -4.565,11.67375 -4.66375,11.9425 -0.0237,0.0762 -0.12125,0.0825 -0.1625,-0.009 -0.14625,-0.33125 -4.78125,-11.9675 -4.78125,-11.9675 -0.11125,-0.2975 -0.14,-0.405 -1.39375,-0.405 -1.3625,0 -1.2725,0.13125 -1.00125,0.8025 0.0662,0.16125 5.25875,12.81625 5.5525,13.51625 m 26.135,-10.32625 c -0.50125,0.008 -1.1825,0.001 -1.1825,0.001 -0.33875,0 -0.34125,0.18625 -0.34125,0.5675 0,0.3625 10e-4,0.5525 0.34,0.5525 l 1.18375,0 c 0.24375,-0.001 0.25125,0.0263 0.24875,0.28 -0.005,0.535 0,6.98625 0,6.98625 0,2.54375 1.36125,2.8475 2.70625,2.86875 1.33125,0.0187 2.205,-0.375 2.18875,-0.845 -0.009,-0.2725 -0.18875,-0.395 -0.49875,-0.36 -0.2175,0.025 -0.37,0.0913 -0.66125,0.0913 -0.70625,0 -1.5925,-0.19 -1.5925,-1.7375 l -10e-4,-6.98125 c -0.002,-0.27 0,-0.30375 0.26875,-0.3025 l 1.9275,0 c 0.33625,0 0.34875,-0.19 0.34875,-0.5525 0,-0.375 -0.0125,-0.56875 -0.34875,-0.56875 l -1.9375,0 c -0.26125,-10e-4 -0.25625,-0.0263 -0.2575,-0.25125 l 0,-2.35 c -0.001,-0.37625 -0.2875,-0.51 -0.5175,-0.49 -0.16875,0.015 -0.36875,0.12375 -0.84375,0.43375 -0.62,0.40625 -0.78125,0.665 -0.78125,1.405 l 0,0.98375 c -10e-4,0.27 -0.0112,0.265 -0.24875,0.26875"
         style="fill:#005e80;fill-opacity:1;fill-rule:nonzero;stroke:none"
         id="path8403" />
    </g>
  </g>
</svg>
